<svg width="59" height="59" viewBox="0 0 59 59" fill="none" xmlns="http://www.w3.org/2000/svg">
<g clip-path="url(#clip0)">
<path d="M58.4638 29.0725C58.4638 43.6052 47.8007 55.6471 33.8709 57.802C33.5564 57.8506 33.2396 57.8945 32.9216 57.9324C31.8987 58.057 30.8592 58.1271 29.8066 58.1413C29.6678 58.1438 29.5302 58.1449 29.3913 58.1449C29.2524 58.1449 29.1148 58.1438 28.976 58.1414C27.9235 58.1272 26.8839 58.0571 25.8611 57.9326C25.5431 57.8946 25.2262 57.8507 24.9118 57.8021C10.982 55.6471 0.318848 43.6052 0.318848 29.0725C0.318848 13.0162 13.335 0 29.3913 0C45.4476 0 58.4638 13.0162 58.4638 29.0725Z" fill="#F2F2F2"/>
<path d="M58.4638 29.0725C58.4638 30.1677 58.4032 31.2487 58.2846 32.3131C58.2715 32.4318 58.2584 32.5516 58.2443 32.6703C58.1695 33.2731 58.0757 33.8711 57.9653 34.4621C57.944 34.5795 57.9214 34.6958 57.8977 34.811C55.8424 45.0813 48.3773 53.396 38.5983 56.6556C37.1245 56.9405 36.6012 56.035 36.6012 55.2602C36.6012 54.3026 36.6344 51.1722 36.6344 47.2824C36.6344 44.5698 35.7053 42.8005 34.6634 41.8986C39.6983 41.3385 44.9325 39.7271 47.0091 33.7821C47.0507 33.6658 47.0899 33.5471 47.1278 33.4273C47.2441 33.0654 47.3473 32.688 47.4399 32.2941C47.4671 32.1766 47.4945 32.058 47.5194 31.9369C47.7911 30.6494 47.9383 29.1958 47.9383 27.5534C47.9383 24.3803 46.8098 21.7864 44.9456 19.7502C45.2482 19.018 46.2438 16.0609 44.6608 12.0561C44.6608 12.0561 42.2235 11.2753 36.6736 15.0369C34.3502 14.3926 31.8618 14.0698 29.3913 14.058C26.9207 14.0698 24.4335 14.3927 22.1137 15.0369C16.559 11.2753 14.1169 12.0561 14.1169 12.0561C12.5387 16.0609 13.5343 19.018 13.8357 19.7502C11.9762 21.7864 10.8394 24.3804 10.8394 27.5534C10.8394 29.1945 10.9866 30.6482 11.2595 31.9356C11.2844 32.0567 11.3105 32.1754 11.3379 32.2928C11.4304 32.6868 11.5349 33.0653 11.6512 33.4272C11.6891 33.547 11.7296 33.6657 11.7699 33.782C13.8453 39.7163 19.0653 41.3504 24.0859 41.9211C23.2541 42.6474 22.5006 43.9301 22.2395 45.8097C20.5805 46.5525 16.3728 47.8365 13.78 43.3925C13.78 43.3925 12.2421 40.6015 9.32302 40.3962C9.32302 40.3962 6.48573 40.3594 9.12485 42.1631C9.12485 42.1631 11.0294 43.0579 12.3525 46.4173C12.3525 46.4173 14.0589 51.6063 22.1469 49.8478C22.16 52.2768 22.1861 54.5671 22.1861 55.26C22.1861 56.0277 21.6533 56.9284 20.1996 56.659C10.4147 53.4019 2.94127 45.0861 0.884852 34.811V34.8098C0.861117 34.6947 0.838518 34.5784 0.818417 34.4621C0.706897 33.8711 0.613093 33.2731 0.539503 32.6703C0.524058 32.5516 0.510998 32.4329 0.497939 32.3131C0.379377 31.2487 0.318848 30.1677 0.318848 29.0725C0.318848 13.0162 13.3374 0 29.3913 0C45.4465 0 58.4638 13.0162 58.4638 29.0725Z" fill="#222123"/>
<path d="M11.0709 41.3032C10.8609 41.2035 10.633 41.245 10.5702 41.3934C10.5025 41.5382 10.62 41.7351 10.8313 41.83C11.039 41.9297 11.2655 41.887 11.3297 41.7422C11.4032 41.5974 11.2821 41.3981 11.0709 41.3032Z" fill="#222123"/>
<path d="M12.4249 42.4506C12.2338 42.2489 11.9715 42.1884 11.8292 42.3165C11.6881 42.447 11.7236 42.7187 11.9135 42.9205C12.0975 43.1235 12.3691 43.184 12.508 43.0558C12.6528 42.9252 12.6147 42.6558 12.4249 42.4506Z" fill="#222123"/>
<path d="M13.6578 44.0299C13.475 43.7736 13.1878 43.6621 13.0086 43.7855C12.8259 43.9101 12.8259 44.2198 13.0038 44.4785C13.1842 44.7372 13.4749 44.8535 13.6541 44.7289C13.8357 44.6031 13.8357 44.2922 13.6578 44.0299Z" fill="#222123"/>
<path d="M15.0651 45.6045C14.8147 45.3661 14.473 45.3173 14.3116 45.493C14.1526 45.6686 14.2226 46.0021 14.4765 46.2358C14.7257 46.4756 15.0651 46.523 15.2241 46.3474C15.3939 46.1729 15.3168 45.8384 15.0651 45.6045Z" fill="#222123"/>
<path d="M16.915 46.6904C16.5827 46.5872 16.2541 46.6952 16.1864 46.9241C16.1199 47.1543 16.3347 47.4213 16.6633 47.521C16.9933 47.6171 17.3195 47.5138 17.3907 47.286C17.4585 47.0547 17.2438 46.7901 16.915 46.6904Z" fill="#222123"/>
<path d="M19.1413 47.0368C18.7935 47.0427 18.5206 47.2385 18.5206 47.4806C18.5242 47.7167 18.8054 47.9114 19.1531 47.9031C19.4984 47.8996 19.7785 47.7001 19.7701 47.4605C19.7702 47.2232 19.4865 47.0297 19.1413 47.0368Z" fill="#222123"/>
<path d="M21.9843 47.0843C21.9404 46.8458 21.632 46.7058 21.289 46.765C20.9508 46.8267 20.7064 47.0676 20.7491 47.3073C20.7918 47.5387 21.1039 47.6834 21.4421 47.6218C21.785 47.5577 22.0248 47.3181 21.9843 47.0843Z" fill="#222123"/>
</g>
<defs>
<clipPath id="clip0">
<rect width="58.1449" height="58.1449" fill="white" transform="translate(0.318848)"/>
</clipPath>
</defs>
</svg>
